<svg id="Layer_1" enable-background="new 0 0 512 512"  viewBox="0 0 512 512" height="40" width="40" xmlns="http://www.w3.org/2000/svg"><g><path d="m502 166c5.522 0 10-4.478 10-10v-80c0-5.522-4.478-10-10-10h-80c-5.522 0-10 4.478-10 10v30h-312v-30c0-5.522-4.478-10-10-10h-80c-5.522 0-10 4.478-10 10v80c0 5.522 4.478 10 10 10h30v180h-30c-5.522 0-10 4.478-10 10v80c0 5.522 4.478 10 10 10h80c5.522 0 10-4.478 10-10v-30h312v30c0 5.522 4.478 10 10 10h80c5.522 0 10-4.478 10-10v-80c0-5.522-4.478-10-10-10h-30v-180zm-70-80h60v60h-60zm-412 0h60v60h-60zm60 340h-60v-60h60zm412 0h-60v-60h60zm-40-80h-30c-5.522 0-10 4.478-10 10v30h-312v-30c0-5.522-4.478-10-10-10h-30v-180h30c5.522 0 10-4.478 10-10v-30h312v30c0 5.522 4.478 10 10 10h30z"/><path d="m286 326h-30v-140h60v10c.529 13.268 19.476 13.258 20 0v-20c0-5.522-4.478-10-10-10h-200c-5.522 0-10 4.478-10 10v20c.529 13.268 19.476 13.258 20 0v-10h60v140h-30c-13.268.529-13.258 19.476 0 20h120c13.268-.529 13.258-19.476 0-20zm-70-140h20v140h-20z"/><path d="m386 246h-80c-5.522 0-10 4.478-10 10v10c.529 13.268 19.476 13.258 20 0h20v60h-10c-13.268.529-13.258 19.476 0 20h40c13.268-.529 13.258-19.476 0-20h-10v-60h20c.529 13.268 19.476 13.258 20 0v-10c0-5.522-4.478-10-10-10z"/></g></svg>